# xmcd
#
# Track frame offsets:
#	150
#	16307
#	36131
#	53450
#	74402
#	96210
#	114236
#	134656
#	152949
#	155854
#	174234
#	194690
#	214154
#	230822
#	250178
#	267803
#	285766
#	301906
#
# Disc length: 4492 seconds
#
# Revision: 1
# Processed by: cddbd v1.5.1PL2 Copyright (c) Steve Scherf et al.
# Submitted via: audiograbber 1.83.01
#
DISCID=fc118a12
DTITLE=Lord Scan - Ich Bins
DYEAR=2006
DGENRE=Hip-Hop
TTITLE0=Ich Bins!
TTITLE1=Waehlt Lord Scan!!!
TTITLE2=Flashbacks teil 2
TTITLE3=Bleib Am Ball
TTITLE4=Machtuebernahme
TTITLE5=Lackschnueffeln
TTITLE6=Elvis im Wunderland
TTITLE7=Load "$",8
TTITLE8=Chromfinger Skit
TTITLE9=Chromfinger
TTITLE10=Was Ist Mit HipHop?!
TTITLE11=Latsch Aufm Zahnfleisch...
TTITLE12=Abfack RMX
TTITLE13=Ich Denke Zuviel
TTITLE14=Das Leben Ist schoen
TTITLE15=Reicht Dass?
TTITLE16=Durch
TTITLE17=Das Ist Hi-Fi!
EXTD=
EXTT0=
EXTT1=
EXTT2=
EXTT3=
EXTT4=
EXTT5=
EXTT6=
EXTT7=
EXTT8=
EXTT9=
EXTT10=
EXTT11=
EXTT12=
EXTT13=
EXTT14=
EXTT15=
EXTT16=
EXTT17=
PLAYORDER=
